<svg width="205" height="30" viewBox="0 0 205 30" fill="none" xmlns="http://www.w3.org/2000/svg">
<path d="M49.928 10.424C49.816 10.312 49.608 10.16 49.304 9.968C49.016 9.776 48.656 9.592 48.224 9.416C47.808 9.24 47.352 9.088 46.856 8.96C46.36 8.816 45.856 8.744 45.344 8.744C44.448 8.744 43.768 8.912 43.304 9.248C42.856 9.584 42.632 10.056 42.632 10.664C42.632 11.128 42.776 11.496 43.064 11.768C43.352 12.04 43.784 12.272 44.36 12.464C44.936 12.656 45.656 12.864 46.52 13.088C47.64 13.36 48.608 13.696 49.424 14.096C50.256 14.48 50.888 14.992 51.32 15.632C51.768 16.256 51.992 17.088 51.992 18.128C51.992 19.04 51.824 19.824 51.488 20.48C51.152 21.12 50.688 21.64 50.096 22.04C49.504 22.44 48.832 22.736 48.08 22.928C47.328 23.104 46.528 23.192 45.68 23.192C44.832 23.192 43.984 23.104 43.136 22.928C42.288 22.752 41.472 22.504 40.688 22.184C39.904 21.848 39.184 21.448 38.528 20.984L39.992 18.128C40.136 18.272 40.392 18.464 40.76 18.704C41.128 18.928 41.576 19.16 42.104 19.4C42.632 19.624 43.208 19.816 43.832 19.976C44.456 20.136 45.088 20.216 45.728 20.216C46.624 20.216 47.304 20.064 47.768 19.76C48.232 19.456 48.464 19.024 48.464 18.464C48.464 17.952 48.28 17.552 47.912 17.264C47.544 16.976 47.032 16.728 46.376 16.52C45.72 16.296 44.944 16.056 44.048 15.8C42.976 15.496 42.08 15.16 41.36 14.792C40.64 14.408 40.104 13.928 39.752 13.352C39.4 12.776 39.224 12.056 39.224 11.192C39.224 10.024 39.496 9.048 40.04 8.264C40.6 7.464 41.352 6.864 42.296 6.464C43.24 6.048 44.288 5.84 45.44 5.84C46.24 5.84 46.992 5.928 47.696 6.104C48.416 6.28 49.088 6.512 49.712 6.8C50.336 7.088 50.896 7.4 51.392 7.736L49.928 10.424ZM59.9908 23.24C58.9668 23.24 58.0468 23.072 57.2308 22.736C56.4148 22.384 55.7188 21.904 55.1428 21.296C54.5828 20.688 54.1508 19.992 53.8468 19.208C53.5428 18.424 53.3908 17.6 53.3908 16.736C53.3908 15.856 53.5428 15.024 53.8468 14.24C54.1508 13.456 54.5828 12.76 55.1428 12.152C55.7188 11.544 56.4148 11.072 57.2308 10.736C58.0468 10.384 58.9668 10.208 59.9908 10.208C61.0148 10.208 61.9268 10.384 62.7268 10.736C63.5428 11.072 64.2388 11.544 64.8148 12.152C65.3908 12.76 65.8228 13.456 66.1108 14.24C66.4148 15.024 66.5668 15.856 66.5668 16.736C66.5668 17.6 66.4148 18.424 66.1108 19.208C65.8228 19.992 65.3908 20.688 64.8148 21.296C64.2548 21.904 63.5668 22.384 62.7508 22.736C61.9348 23.072 61.0148 23.24 59.9908 23.24ZM56.7028 16.736C56.7028 17.472 56.8468 18.128 57.1348 18.704C57.4228 19.264 57.8148 19.704 58.3108 20.024C58.8068 20.344 59.3668 20.504 59.9908 20.504C60.5988 20.504 61.1508 20.344 61.6468 20.024C62.1428 19.688 62.5348 19.24 62.8228 18.68C63.1268 18.104 63.2788 17.448 63.2788 16.712C63.2788 15.992 63.1268 15.344 62.8228 14.768C62.5348 14.192 62.1428 13.744 61.6468 13.424C61.1508 13.104 60.5988 12.944 59.9908 12.944C59.3668 12.944 58.8068 13.112 58.3108 13.448C57.8148 13.768 57.4228 14.216 57.1348 14.792C56.8468 15.352 56.7028 16 56.7028 16.736ZM74.5934 23.24C73.5694 23.24 72.6494 23.072 71.8334 22.736C71.0174 22.384 70.3214 21.904 69.7454 21.296C69.1694 20.672 68.7214 19.968 68.4014 19.184C68.0974 18.4 67.9454 17.576 67.9454 16.712C67.9454 15.528 68.2094 14.448 68.7374 13.472C69.2814 12.48 70.0494 11.688 71.0414 11.096C72.0334 10.504 73.2094 10.208 74.5694 10.208C75.9294 10.208 77.0974 10.504 78.0734 11.096C79.0494 11.688 79.7774 12.464 80.2574 13.424L77.1134 14.384C76.8414 13.92 76.4814 13.568 76.0334 13.328C75.5854 13.072 75.0894 12.944 74.5454 12.944C73.9374 12.944 73.3774 13.104 72.8654 13.424C72.3694 13.728 71.9774 14.168 71.6894 14.744C71.4014 15.304 71.2574 15.96 71.2574 16.712C71.2574 17.448 71.4014 18.104 71.6894 18.68C71.9934 19.24 72.3934 19.688 72.8894 20.024C73.3854 20.344 73.9374 20.504 74.5454 20.504C74.9294 20.504 75.2894 20.44 75.6254 20.312C75.9774 20.184 76.2894 20.008 76.5614 19.784C76.8334 19.56 77.0334 19.304 77.1614 19.016L80.3054 19.976C80.0174 20.6 79.5934 21.16 79.0334 21.656C78.4894 22.152 77.8414 22.544 77.0894 22.832C76.3534 23.104 75.5214 23.24 74.5934 23.24ZM82.2843 23V10.424H85.5003V23H82.2843ZM82.2843 8.672V5.48H85.5003V8.672H82.2843ZM87.5375 19.28C87.5375 18.464 87.7615 17.752 88.2095 17.144C88.6735 16.52 89.3135 16.04 90.1295 15.704C90.9455 15.368 91.8815 15.2 92.9375 15.2C93.4655 15.2 94.0015 15.24 94.5455 15.32C95.0895 15.4 95.5615 15.528 95.9615 15.704V15.032C95.9615 14.232 95.7215 13.616 95.2415 13.184C94.7775 12.752 94.0815 12.536 93.1535 12.536C92.4655 12.536 91.8095 12.656 91.1855 12.896C90.5615 13.136 89.9055 13.488 89.2175 13.952L88.1855 11.84C89.0175 11.296 89.8655 10.888 90.7295 10.616C91.6095 10.344 92.5295 10.208 93.4895 10.208C95.2815 10.208 96.6735 10.656 97.6655 11.552C98.6735 12.448 99.1775 13.728 99.1775 15.392V19.4C99.1775 19.736 99.2335 19.976 99.3455 20.12C99.4735 20.264 99.6735 20.352 99.9455 20.384V23C99.6575 23.048 99.3935 23.088 99.1535 23.12C98.9295 23.152 98.7375 23.168 98.5775 23.168C97.9375 23.168 97.4495 23.024 97.1135 22.736C96.7935 22.448 96.5935 22.096 96.5135 21.68L96.4415 21.032C95.8975 21.736 95.2175 22.28 94.4015 22.664C93.5855 23.048 92.7535 23.24 91.9055 23.24C91.0735 23.24 90.3215 23.072 89.6495 22.736C88.9935 22.384 88.4735 21.912 88.0895 21.32C87.7215 20.712 87.5375 20.032 87.5375 19.28ZM95.3615 19.928C95.5375 19.736 95.6815 19.544 95.7935 19.352C95.9055 19.16 95.9615 18.984 95.9615 18.824V17.552C95.5775 17.392 95.1615 17.272 94.7135 17.192C94.2655 17.096 93.8415 17.048 93.4415 17.048C92.6095 17.048 91.9215 17.232 91.3775 17.6C90.8495 17.952 90.5855 18.424 90.5855 19.016C90.5855 19.336 90.6735 19.64 90.8495 19.928C91.0255 20.216 91.2815 20.448 91.6175 20.624C91.9535 20.8 92.3535 20.888 92.8175 20.888C93.2975 20.888 93.7695 20.8 94.2335 20.624C94.6975 20.432 95.0735 20.2 95.3615 19.928ZM102.159 5.48H105.375V18.968C105.375 19.544 105.471 19.936 105.663 20.144C105.855 20.336 106.119 20.432 106.455 20.432C106.711 20.432 106.975 20.4 107.247 20.336C107.519 20.272 107.759 20.192 107.967 20.096L108.399 22.544C107.967 22.752 107.463 22.912 106.887 23.024C106.311 23.136 105.791 23.192 105.327 23.192C104.319 23.192 103.535 22.928 102.975 22.4C102.431 21.856 102.159 21.088 102.159 20.096V5.48ZM108.635 14.36C108.635 13.32 108.819 12.304 109.187 11.312C109.571 10.304 110.123 9.392 110.843 8.576C111.563 7.744 112.443 7.088 113.483 6.608C114.523 6.112 115.707 5.864 117.035 5.864C118.603 5.864 119.955 6.208 121.091 6.896C122.243 7.584 123.099 8.48 123.659 9.584L121.115 11.336C120.827 10.696 120.451 10.192 119.987 9.824C119.523 9.44 119.027 9.176 118.499 9.032C117.971 8.872 117.451 8.792 116.939 8.792C116.107 8.792 115.379 8.96 114.755 9.296C114.147 9.632 113.635 10.072 113.219 10.616C112.803 11.16 112.491 11.768 112.283 12.44C112.091 13.112 111.995 13.784 111.995 14.456C111.995 15.208 112.115 15.936 112.355 16.64C112.595 17.328 112.931 17.944 113.363 18.488C113.811 19.016 114.339 19.44 114.947 19.76C115.571 20.064 116.251 20.216 116.987 20.216C117.515 20.216 118.051 20.128 118.595 19.952C119.139 19.776 119.643 19.496 120.107 19.112C120.571 18.728 120.931 18.232 121.187 17.624L123.899 19.184C123.563 20.032 123.011 20.752 122.243 21.344C121.491 21.936 120.643 22.384 119.699 22.688C118.755 22.992 117.819 23.144 116.891 23.144C115.675 23.144 114.563 22.896 113.555 22.4C112.547 21.888 111.675 21.216 110.939 20.384C110.219 19.536 109.651 18.592 109.235 17.552C108.835 16.496 108.635 15.432 108.635 14.36ZM131.569 23.24C130.545 23.24 129.625 23.072 128.809 22.736C127.993 22.384 127.297 21.904 126.721 21.296C126.161 20.688 125.729 19.992 125.425 19.208C125.121 18.424 124.969 17.6 124.969 16.736C124.969 15.856 125.121 15.024 125.425 14.24C125.729 13.456 126.161 12.76 126.721 12.152C127.297 11.544 127.993 11.072 128.809 10.736C129.625 10.384 130.545 10.208 131.569 10.208C132.593 10.208 133.505 10.384 134.305 10.736C135.121 11.072 135.817 11.544 136.393 12.152C136.969 12.76 137.401 13.456 137.689 14.24C137.993 15.024 138.145 15.856 138.145 16.736C138.145 17.6 137.993 18.424 137.689 19.208C137.401 19.992 136.969 20.688 136.393 21.296C135.833 21.904 135.145 22.384 134.329 22.736C133.513 23.072 132.593 23.24 131.569 23.24ZM128.281 16.736C128.281 17.472 128.425 18.128 128.713 18.704C129.001 19.264 129.393 19.704 129.889 20.024C130.385 20.344 130.945 20.504 131.569 20.504C132.177 20.504 132.729 20.344 133.225 20.024C133.721 19.688 134.113 19.24 134.401 18.68C134.705 18.104 134.857 17.448 134.857 16.712C134.857 15.992 134.705 15.344 134.401 14.768C134.113 14.192 133.721 13.744 133.225 13.424C132.729 13.104 132.177 12.944 131.569 12.944C130.945 12.944 130.385 13.112 129.889 13.448C129.393 13.768 129.001 14.216 128.713 14.792C128.425 15.352 128.281 16 128.281 16.736ZM152.004 23H148.788V15.944C148.788 14.936 148.612 14.2 148.26 13.736C147.908 13.272 147.42 13.04 146.796 13.04C146.364 13.04 145.924 13.152 145.476 13.376C145.044 13.6 144.652 13.912 144.3 14.312C143.948 14.696 143.692 15.144 143.532 15.656V23H140.316V10.424H143.22V12.752C143.54 12.208 143.948 11.752 144.444 11.384C144.94 11 145.508 10.712 146.148 10.52C146.804 10.312 147.492 10.208 148.212 10.208C148.996 10.208 149.636 10.352 150.132 10.64C150.644 10.912 151.028 11.288 151.284 11.768C151.556 12.232 151.74 12.76 151.836 13.352C151.948 13.944 152.004 14.544 152.004 15.152V23ZM166.488 23H163.272V15.944C163.272 14.936 163.096 14.2 162.744 13.736C162.392 13.272 161.904 13.04 161.28 13.04C160.848 13.04 160.408 13.152 159.96 13.376C159.528 13.6 159.136 13.912 158.784 14.312C158.432 14.696 158.176 15.144 158.016 15.656V23H154.8V10.424H157.704V12.752C158.024 12.208 158.432 11.752 158.928 11.384C159.424 11 159.992 10.712 160.632 10.52C161.288 10.312 161.976 10.208 162.696 10.208C163.48 10.208 164.12 10.352 164.616 10.64C165.128 10.912 165.512 11.288 165.768 11.768C166.04 12.232 166.224 12.76 166.32 13.352C166.432 13.944 166.488 14.544 166.488 15.152V23ZM175.116 23.24C174.108 23.24 173.196 23.072 172.38 22.736C171.564 22.384 170.868 21.912 170.292 21.32C169.716 20.712 169.268 20.024 168.948 19.256C168.644 18.472 168.492 17.648 168.492 16.784C168.492 15.584 168.756 14.488 169.284 13.496C169.828 12.504 170.596 11.712 171.588 11.12C172.596 10.512 173.78 10.208 175.14 10.208C176.516 10.208 177.692 10.512 178.668 11.12C179.644 11.712 180.388 12.504 180.9 13.496C181.428 14.472 181.692 15.528 181.692 16.664C181.692 16.856 181.684 17.056 181.668 17.264C181.652 17.456 181.636 17.616 181.62 17.744H171.9C171.964 18.384 172.148 18.944 172.452 19.424C172.772 19.904 173.172 20.272 173.652 20.528C174.148 20.768 174.676 20.888 175.236 20.888C175.876 20.888 176.476 20.736 177.036 20.432C177.612 20.112 178.004 19.696 178.212 19.184L180.972 19.952C180.668 20.592 180.228 21.16 179.652 21.656C179.092 22.152 178.428 22.544 177.66 22.832C176.892 23.104 176.044 23.24 175.116 23.24ZM171.828 15.704H178.404C178.34 15.064 178.156 14.512 177.852 14.048C177.564 13.568 177.18 13.2 176.7 12.944C176.22 12.672 175.684 12.536 175.092 12.536C174.516 12.536 173.988 12.672 173.508 12.944C173.044 13.2 172.66 13.568 172.356 14.048C172.068 14.512 171.892 15.064 171.828 15.704ZM189.508 23.24C188.484 23.24 187.564 23.072 186.748 22.736C185.932 22.384 185.236 21.904 184.66 21.296C184.084 20.672 183.636 19.968 183.316 19.184C183.012 18.4 182.86 17.576 182.86 16.712C182.86 15.528 183.124 14.448 183.652 13.472C184.196 12.48 184.964 11.688 185.956 11.096C186.948 10.504 188.124 10.208 189.484 10.208C190.844 10.208 192.012 10.504 192.988 11.096C193.964 11.688 194.692 12.464 195.172 13.424L192.028 14.384C191.756 13.92 191.396 13.568 190.948 13.328C190.5 13.072 190.004 12.944 189.46 12.944C188.852 12.944 188.292 13.104 187.78 13.424C187.284 13.728 186.892 14.168 186.604 14.744C186.316 15.304 186.172 15.96 186.172 16.712C186.172 17.448 186.316 18.104 186.604 18.68C186.908 19.24 187.308 19.688 187.804 20.024C188.3 20.344 188.852 20.504 189.46 20.504C189.844 20.504 190.204 20.44 190.54 20.312C190.892 20.184 191.204 20.008 191.476 19.784C191.748 19.56 191.948 19.304 192.076 19.016L195.22 19.976C194.932 20.6 194.508 21.16 193.948 21.656C193.404 22.152 192.756 22.544 192.004 22.832C191.268 23.104 190.436 23.24 189.508 23.24ZM204.734 22.352C204.462 22.464 204.134 22.592 203.75 22.736C203.366 22.88 202.95 22.992 202.502 23.072C202.07 23.168 201.63 23.216 201.182 23.216C200.59 23.216 200.046 23.112 199.55 22.904C199.054 22.696 198.654 22.368 198.35 21.92C198.062 21.456 197.918 20.856 197.918 20.12V12.896H196.262V10.424H197.918V6.344H201.134V10.424H203.774V12.896H201.134V19.04C201.15 19.472 201.27 19.784 201.494 19.976C201.718 20.168 201.998 20.264 202.334 20.264C202.67 20.264 202.998 20.208 203.318 20.096C203.638 19.984 203.894 19.888 204.086 19.808L204.734 22.352Z" fill="white"/>
<path fill-rule="evenodd" clip-rule="evenodd" d="M27.8333 15C27.8333 22.0877 22.0877 27.8333 15 27.8333C7.91234 27.8333 2.16666 22.0877 2.16666 15C2.16666 7.9123 7.91234 2.16666 15 2.16666C22.0877 2.16666 27.8333 7.9123 27.8333 15ZM30 15C30 23.2843 23.2843 30 15 30C6.71573 30 0 23.2843 0 15C0 6.71573 6.71573 0 15 0C23.2843 0 30 6.71573 30 15ZM23.2759 8.2759C23.2759 9.1329 22.5812 9.8276 21.7242 9.8276C20.8672 9.8276 20.1725 9.1329 20.1725 8.2759C20.1725 7.4189 20.8672 6.72418 21.7242 6.72418C22.5812 6.72418 23.2759 7.4189 23.2759 8.2759ZM10.4879 16.209C11.1556 18.7009 13.717 20.1797 16.2089 19.512C18.7008 18.8443 20.1796 16.2829 19.5119 13.791C18.8442 11.2991 16.2828 9.8203 13.7909 10.488C11.299 11.1557 9.82015 13.7171 10.4879 16.209ZM8.39503 16.7698C9.37244 20.4175 13.1219 22.5823 16.7696 21.6049C20.4174 20.6274 22.5821 16.878 21.6047 13.2302C20.6273 9.5825 16.8779 7.4177 13.2301 8.3952C9.58236 9.3726 7.41762 13.122 8.39503 16.7698Z" fill="url(#paint0_linear_1_7)"/>
<defs>
<linearGradient id="paint0_linear_1_7" x1="15" y1="0" x2="15" y2="30" gradientUnits="userSpaceOnUse">
<stop stop-color="#3B82F6"/>
<stop offset="1" stop-color="#295295"/>
</linearGradient>
</defs>
</svg>
